<?xml version="1.0" standalone="no"?>
<!DOCTYPE svg PUBLIC "-//W3C//DTD SVG 20010904//EN"
 "http://www.w3.org/TR/2001/REC-SVG-20010904/DTD/svg10.dtd">
<svg version="1.0" xmlns="http://www.w3.org/2000/svg"
 width="1280.000000pt" height="1135.000000pt" viewBox="0 0 1280.000000 1135.000000"
 preserveAspectRatio="xMidYMid meet">
<metadata>
Created by potrace 1.15, written by Peter Selinger 2001-2017
</metadata>
<g transform="translate(0.000000,1135.000000) scale(0.100000,-0.100000)"
fill="#000000" stroke="none">
<path d="M3980 11334 c-173 -47 -307 -206 -318 -379 -2 -41 -7 -75 -9 -75 -2
0 -18 7 -36 17 -206 106 -476 5 -581 -217 -28 -59 -30 -74 -31 -170 0 -100 2
-109 34 -175 24 -47 57 -92 105 -140 119 -118 239 -163 581 -215 247 -39 364
-63 479 -102 64 -21 91 -26 96 -18 4 6 10 45 13 85 9 100 37 221 98 421 87
285 100 341 106 459 7 132 -5 199 -53 294 -89 179 -289 267 -484 215z"/>
<path d="M5626 9709 c-163 -16 -327 -72 -411 -142 -25 -20 -51 -60 -81 -122
-24 -50 -52 -99 -63 -109 -13 -12 -60 -23 -152 -37 -104 -14 -148 -26 -197
-50 -35 -17 -60 -35 -55 -39 18 -17 126 -31 285 -37 l167 -6 11 -32 c6 -17 40
-80 76 -141 86 -143 114 -198 130 -259 19 -70 17 -119 -11 -290 -63 -380 -57
-561 25 -806 85 -256 269 -495 540 -704 86 -66 271 -185 434 -279 173 -99 176
-87 -28 -137 -65 -17 -140 -41 -166 -54 -48 -24 -129 -107 -111 -113 5 -2 46
15 91 38 44 22 85 38 90 35 6 -4 10 -18 10 -33 0 -15 3 -38 7 -51 5 -20 11
-13 47 55 23 43 53 87 68 98 26 19 35 19 157 9 l128 -10 108 -58 107 -57 -55
-22 c-30 -13 -103 -50 -163 -84 -134 -74 -160 -85 -299 -117 -135 -31 -223
-72 -270 -127 -19 -23 -33 -43 -31 -45 2 -2 42 15 90 38 94 45 105 44 106 -11
1 -54 16 -49 50 16 50 95 76 114 158 114 173 -1 334 -42 452 -115 30 -18 56
-32 58 -30 6 6 -44 78 -74 108 -39 39 -76 57 -133 64 -44 5 -119 -5 -165 -23
-17 -7 -17 -5 -2 24 34 67 142 129 273 157 l68 14 80 -54 c110 -73 250 -193
374 -318 l103 -105 -9 -38 c-6 -28 -5 -50 4 -77 52 -151 -225 -378 -627 -515
-133 -45 -220 -66 -525 -121 -484 -89 -660 -113 -1001 -141 -115 -9 -124 -8
-180 13 -106 42 -317 96 -415 106 -361 39 -834 18 -1764 -79 -104 -11 -278
-24 -385 -30 -203 -10 -613 -3 -608 11 2 5 80 93 174 196 94 103 206 229 249
278 226 259 464 475 523 475 39 0 148 -40 187 -69 22 -16 49 -44 59 -62 19
-32 19 -32 0 -24 -10 4 -50 10 -89 12 -61 4 -74 2 -105 -19 -33 -23 -98 -103
-89 -112 2 -2 33 13 69 34 36 22 92 46 124 54 84 22 237 32 264 17 12 -6 37
-42 56 -79 l33 -66 8 42 c4 23 11 42 16 42 5 0 36 -13 69 -30 33 -16 62 -30
65 -30 4 0 -3 14 -15 31 -34 47 -90 76 -212 110 -122 34 -163 52 -278 123 -41
25 -82 46 -91 46 -41 0 -24 21 48 63 55 31 94 46 134 51 89 11 158 9 175 -5 9
-7 31 -42 49 -78 l34 -66 1 42 c0 24 5 43 13 46 6 2 40 -12 75 -31 35 -19 65
-32 68 -29 7 6 -42 63 -75 87 -16 10 -79 33 -142 50 -63 17 -118 35 -122 39
-5 5 58 50 140 100 196 122 309 207 419 316 201 200 316 432 344 692 12 114
10 145 -27 413 -34 251 -37 239 115 521 l52 96 143 6 c155 7 200 14 194 30 -7
23 -82 50 -175 64 -53 9 -107 20 -119 26 -14 6 -38 41 -62 91 -55 116 -105
155 -258 202 -44 14 -92 18 -198 19 -124 0 -146 -3 -188 -22 -103 -48 -252
-187 -338 -318 -174 -263 -296 -444 -405 -600 -69 -99 -149 -218 -176 -265
-75 -126 -227 -430 -368 -734 -142 -307 -207 -429 -325 -606 -141 -213 -266
-373 -574 -735 -80 -93 -178 -209 -219 -257 -41 -49 -78 -88 -83 -88 -4 0 -86
23 -181 51 -464 136 -615 197 -756 305 -66 50 -102 63 -102 35 0 -17 361 -360
443 -422 105 -78 241 -144 353 -171 49 -12 90 -22 92 -23 1 -1 -14 -31 -34
-66 -20 -35 -68 -125 -106 -199 -60 -115 -83 -147 -152 -218 l-81 -83 2 -105
c1 -59 4 -108 7 -111 12 -13 492 415 690 616 108 109 134 131 159 131 19 0 27
-4 24 -12 -31 -73 -261 -557 -320 -674 -129 -257 -205 -377 -442 -704 -79
-107 -175 -244 -214 -305 -75 -115 -208 -371 -198 -381 3 -3 10 3 16 15 6 11
249 384 540 829 291 446 534 820 541 832 18 34 20 20 4 -40 -8 -30 -62 -241
-119 -468 -74 -293 -120 -455 -159 -555 -99 -258 -130 -373 -192 -697 -31
-169 -39 -249 -29 -334 4 -37 8 -66 10 -64 2 2 8 86 15 188 13 219 19 248 109
523 38 117 86 277 106 357 37 148 73 239 189 482 91 191 117 249 203 448 89
207 177 390 230 478 l38 64 100 -7 c138 -9 253 -9 435 0 214 10 379 -13 650
-91 375 -109 769 -420 971 -766 85 -146 157 -361 178 -536 26 -209 -46 -416
-217 -625 -100 -123 -211 -206 -399 -300 -95 -47 -118 -67 -94 -81 11 -7 227
86 375 161 120 62 217 135 326 244 235 238 316 496 247 795 -45 198 -132 388
-247 541 -22 29 -38 53 -34 53 3 0 29 -20 57 -44 81 -68 216 -160 287 -196
347 -175 778 -301 1198 -350 l102 -12 0 -144 c0 -343 -84 -665 -275 -1062
-191 -395 -416 -683 -750 -962 -402 -336 -683 -473 -1070 -521 -148 -19 -459
-16 -572 5 -277 50 -483 149 -712 341 -226 190 -423 488 -510 775 -53 172
-108 446 -131 645 -5 50 -15 230 -21 400 -12 312 -11 326 22 442 10 36 9 47
-5 68 -27 42 -104 46 -125 7 -13 -25 -59 -349 -67 -472 -11 -190 34 -572 100
-852 74 -309 162 -540 273 -712 156 -241 472 -545 673 -646 308 -155 709 -199
1134 -125 166 29 462 140 695 260 118 61 116 57 -54 -79 -242 -194 -601 -370
-1155 -568 -669 -238 -1329 -353 -1930 -335 -339 10 -421 45 -754 325 -176
147 -240 194 -332 240 l-61 31 -32 90 c-31 85 -49 108 -66 81 -4 -6 8 -48 25
-93 17 -45 38 -124 46 -176 44 -293 253 -460 664 -533 99 -17 750 -17 945 1
576 51 966 136 1495 323 533 189 893 367 1315 648 196 131 373 286 445 390 22
30 80 97 130 149 212 217 382 465 539 785 218 443 321 789 339 1135 l7 123
280 -1 c566 -4 994 37 1385 130 273 65 669 191 964 305 77 30 143 53 147 52 9
-3 293 -571 337 -673 17 -38 53 -155 82 -259 28 -103 69 -241 92 -305 99 -286
148 -441 158 -509 6 -39 17 -163 24 -274 11 -186 13 -198 22 -143 14 92 8 230
-16 340 -11 55 -30 150 -41 210 -44 241 -117 483 -224 740 -61 148 -73 181
-115 340 -12 44 -53 196 -91 338 -38 143 -67 262 -64 267 9 15 116 53 125 44
4 -5 277 -397 605 -872 328 -475 599 -861 602 -859 2 3 -27 68 -66 145 -104
204 -202 346 -550 797 -146 189 -258 350 -348 500 -77 129 -185 326 -180 331
2 2 61 31 132 65 l129 62 48 -54 c119 -135 169 -238 177 -369 5 -76 8 -85 26
-85 18 0 21 11 32 110 6 61 12 143 12 183 1 39 3 72 6 72 3 0 47 -33 98 -74
l92 -74 12 81 c24 163 15 190 -99 286 -43 36 -78 69 -78 72 0 8 310 142 483
208 368 141 570 191 798 199 142 4 163 3 224 -17 215 -70 348 -189 425 -381
73 -183 100 -372 82 -570 -30 -320 -122 -588 -283 -830 -111 -167 -351 -388
-567 -520 -76 -47 -90 -66 -72 -100 19 -36 61 -25 158 40 226 151 490 433 666
712 27 43 51 76 53 75 1 -2 -10 -75 -26 -163 -64 -349 -59 -487 23 -627 36
-60 64 -84 118 -98 65 -18 140 1 220 54 92 60 369 341 470 477 110 148 231
335 279 430 50 100 69 168 76 270 5 70 2 92 -12 120 -61 121 -169 137 -300 46
-27 -20 -74 -51 -102 -71 -51 -34 -65 -57 -43 -70 5 -3 30 8 55 25 40 27 55
32 118 33 97 3 134 -13 147 -65 20 -71 13 -196 -13 -281 -31 -96 -116 -248
-211 -375 -223 -298 -431 -461 -593 -465 -52 -1 -58 1 -84 33 -91 108 -105
242 -63 570 32 244 61 382 98 460 107 226 125 556 51 935 -29 144 -108 314
-195 417 -96 115 -208 190 -360 239 -85 28 -108 31 -220 31 -282 0 -547 -90
-1229 -416 -157 -75 -285 -135 -286 -134 -1 2 -35 62 -75 133 -163 287 -235
380 -645 836 -358 398 -445 498 -597 689 -268 337 -365 498 -667 1103 -339
681 -404 790 -745 1247 -104 140 -248 341 -319 445 -71 105 -154 219 -184 255
-106 127 -280 261 -381 294 -40 14 -205 39 -222 35 -3 -1 -45 -6 -94 -10z
m934 -3183 c0 -3 -4 -8 -10 -11 -5 -3 -10 -1 -10 4 0 6 5 11 10 11 6 0 10 -2
10 -4z m1423 -1223 c110 -113 246 -274 307 -362 38 -57 39 -61 18 -57 -133 29
-584 39 -788 17 -276 -30 -563 -81 -838 -151 -218 -55 -265 -78 -311 -147 -70
-105 -49 -159 65 -176 61 -10 128 12 234 75 184 110 364 182 610 243 242 61
332 70 650 69 319 -1 443 -11 465 -40 32 -44 271 -542 263 -549 -14 -11 -355
-149 -490 -199 -727 -265 -1136 -343 -1850 -353 l-368 -5 0 60 c0 99 -28 287
-65 440 -55 226 -146 385 -306 537 -76 72 -178 145 -261 186 -26 13 -48 27
-48 30 0 3 44 9 98 12 299 20 856 110 1152 186 221 56 421 82 830 106 161 9
264 20 300 30 74 23 157 68 200 109 19 19 36 34 36 35 1 1 44 -43 97 -96z
m871 -402 c78 -79 132 -140 120 -137 -12 4 -58 14 -103 24 l-82 18 -96 184
-95 185 58 -65 c32 -36 121 -130 198 -209z m-5283 -153 c71 -99 161 -209 239
-293 36 -38 54 -62 40 -52 -290 200 -402 255 -745 364 l-120 38 230 5 c127 3
247 7 267 8 35 2 39 -2 89 -70z m449 62 c503 -20 766 -58 991 -145 168 -65
272 -128 383 -234 122 -117 186 -223 249 -411 30 -89 77 -285 77 -319 0 -17
-45 -13 -207 14 -350 61 -670 166 -1088 358 -243 111 -364 195 -545 377 -106
106 -300 341 -300 363 0 10 137 9 440 -3z m5103 -298 c20 -13 37 -26 37 -28 0
-1 -38 -23 -86 -47 l-85 -45 -60 119 c-32 65 -59 124 -59 130 0 11 181 -81
253 -129z m-270 -94 c26 -37 47 -69 47 -71 0 -6 -60 -31 -63 -26 -2 3 -22 77
-45 164 -6 26 4 15 61 -67z"/>
<path d="M5331 6568 c-192 -16 -365 -97 -641 -298 -94 -68 -500 -348 -685
-471 -170 -114 -520 -271 -705 -317 -163 -41 -339 -52 -441 -27 -35 9 -61 -18
-57 -58 5 -49 24 -54 145 -33 59 10 186 37 283 61 301 74 688 144 918 165 170
16 312 41 628 110 491 109 639 172 815 349 89 90 142 166 208 298 l48 97 109
36 c70 24 109 42 109 51 0 25 -38 21 -136 -13 l-96 -34 -82 28 c-152 51 -280
68 -420 56z"/>
<path d="M7155 3158 c-60 -5 -199 -7 -307 -5 l-198 3 0 -100 c0 -109 -11 -190
-60 -476 -27 -153 -32 -203 -28 -291 4 -92 8 -114 35 -171 93 -199 285 -267
490 -173 152 69 272 272 248 417 -6 36 -5 39 11 35 224 -66 485 108 524 349
25 153 -54 296 -204 369 -107 53 -251 65 -511 43z"/>
</g>
</svg>
